<?xml version="1.0" encoding="UTF-8" standalone="no"?>
<!DOCTYPE svg PUBLIC "-//W3C//DTD SVG 1.1//EN"
 "http://www.w3.org/Graphics/SVG/1.1/DTD/svg11.dtd">
<!-- Generated by graphviz version 2.38.0 (20140413.2041)
 -->
<!-- Title: packages Pages: 1 -->
<svg width="1228pt" height="442pt"
 viewBox="0.00 0.00 1228.00 441.96" xmlns="http://www.w3.org/2000/svg" xmlns:xlink="http://www.w3.org/1999/xlink">
<g id="graph0" class="graph" transform="scale(1 1) rotate(0) translate(4 437.96)">
<title>packages</title>
<polygon fill="#ffffff" stroke="none" points="-4,4 -4,-437.96 1224,-437.96 1224,4 -4,4"/>
<text text-anchor="middle" x="610" y="-418.76" font-family="Times New Roman,serif" font-size="14.00">Project Packages</text>
<g id="clust1" class="cluster"><title>cluster_topLevel</title>
<polygon fill="#ffffff" stroke="black" points="8,-8 8,-402.96 610,-402.96 610,-8 8,-8"/>
<text text-anchor="middle" x="309" y="-387.76" font-family="Times New Roman,serif" font-size="14.00">Top&#45;level Packages</text>
</g>
<g id="clust8" class="cluster"><title>cluster_1</title>
<polygon fill="#ffffff" stroke="black" points="623,-15.8701 623,-395.09 901,-395.09 901,-15.8701 623,-15.8701"/>
<text text-anchor="middle" x="762" y="-379.89" font-family="Times New Roman,serif" font-size="14.00">todo&#45;area &#45; TODO Area Package</text>
</g>
<g id="clust9" class="cluster"><title>cluster_2</title>
<polygon fill="#ffffff" stroke="black" points="911,-15.8701 911,-294.35 1212,-294.35 1212,-15.8701 911,-15.8701"/>
<text text-anchor="middle" x="1061.5" y="-279.15" font-family="Times New Roman,serif" font-size="14.00">grid&#45;package &#45; Grid Package with no dependencies</text>
</g>
<!-- P1 -->
<g id="node1" class="node"><title>P1</title>
<ellipse fill="#fbb4ae" stroke="black" cx="443" cy="-345.09" rx="79.3924" ry="26.7407"/>
<text text-anchor="middle" x="443" y="-348.89" font-family="Times New Roman,serif" font-size="14.00">shell</text>
<text text-anchor="middle" x="443" y="-333.89" font-family="Times New Roman,serif" font-size="14.00">Application Shell</text>
</g>
<!-- P2 -->
<g id="node2" class="node"><title>P2</title>
<ellipse fill="#b3cde3" stroke="black" cx="443" cy="-244.35" rx="96.7474" ry="26.7407"/>
<text text-anchor="middle" x="443" y="-248.15" font-family="Times New Roman,serif" font-size="14.00">todo&#45;area</text>
<text text-anchor="middle" x="443" y="-233.15" font-family="Times New Roman,serif" font-size="14.00">TODO Area Package</text>
</g>
<!-- P2&#45;&gt;P1 -->
<g id="edge1" class="edge"><title>P2&#45;&gt;P1</title>
<path fill="none" stroke="black" stroke-dasharray="5,2" d="M443,-281.533C443,-293.609 443,-306.82 443,-317.978"/>
<polygon fill="black" stroke="black" points="443,-271.293 447.5,-281.293 443,-276.293 443,-281.293 443,-281.293 443,-281.293 443,-276.293 438.5,-281.293 443,-271.293 443,-271.293"/>
</g>
<!-- P3 -->
<g id="node3" class="node"><title>P3</title>
<ellipse fill="#ccebc5" stroke="black" cx="182" cy="-244.35" rx="135.115" ry="26.7407"/>
<text text-anchor="middle" x="182" y="-248.15" font-family="Times New Roman,serif" font-size="14.00">contact&#45;area</text>
<text text-anchor="middle" x="182" y="-233.15" font-family="Times New Roman,serif" font-size="14.00">Area that shows contact details</text>
</g>
<!-- P3&#45;&gt;P1 -->
<g id="edge2" class="edge"><title>P3&#45;&gt;P1</title>
<path fill="none" stroke="black" stroke-dasharray="5,2" d="M252.309,-271.949C296.116,-288.522 351.51,-309.479 391.292,-324.528"/>
<polygon fill="black" stroke="black" points="242.864,-268.376 253.809,-267.705 247.54,-270.145 252.217,-271.914 252.217,-271.914 252.217,-271.914 247.54,-270.145 250.624,-276.123 242.864,-268.376 242.864,-268.376"/>
</g>
<!-- P4 -->
<g id="node4" class="node"><title>P4</title>
<ellipse fill="#decbe4" stroke="black" cx="228" cy="-143.61" rx="153.384" ry="26.7407"/>
<text text-anchor="middle" x="228" y="-147.41" font-family="Times New Roman,serif" font-size="14.00">grid&#45;package</text>
<text text-anchor="middle" x="228" y="-132.41" font-family="Times New Roman,serif" font-size="14.00">Grid Package with no dependencies</text>
</g>
<!-- P4&#45;&gt;P1 -->
<g id="edge3" class="edge"><title>P4&#45;&gt;P1</title>
<path fill="none" stroke="black" stroke-dasharray="5,2" d="M104.805,-165.267C76.3483,-176.074 49.3593,-192.506 32,-217.48 12.5005,-245.533 9.33973,-268.782 32,-294.35 53.6612,-318.791 251.727,-333.599 364.799,-340.133"/>
<polygon fill="black" stroke="black" points="114.5,-161.814 106.59,-169.408 109.79,-163.491 105.08,-165.169 105.08,-165.169 105.08,-165.169 109.79,-163.491 103.57,-160.93 114.5,-161.814 114.5,-161.814"/>
</g>
<!-- P4&#45;&gt;P2 -->
<g id="edge6" class="edge"><title>P4&#45;&gt;P2</title>
<path fill="none" stroke="black" stroke-dasharray="5,2" d="M290.029,-173.097C323.216,-188.339 363.49,-206.835 394.383,-221.022"/>
<polygon fill="black" stroke="black" points="280.87,-168.891 291.836,-168.975 285.414,-170.978 289.958,-173.065 289.958,-173.065 289.958,-173.065 285.414,-170.978 288.08,-177.154 280.87,-168.891 280.87,-168.891"/>
</g>
<!-- P4&#45;&gt;P3 -->
<g id="edge15" class="edge"><title>P4&#45;&gt;P3</title>
<path fill="none" stroke="black" stroke-dasharray="5,2" d="M211.619,-179.773C205.809,-192.244 199.383,-206.038 194.005,-217.581"/>
<polygon fill="black" stroke="black" points="215.914,-170.553 215.77,-181.518 213.803,-175.085 211.691,-179.618 211.691,-179.618 211.691,-179.618 213.803,-175.085 207.612,-177.717 215.914,-170.553 215.914,-170.553"/>
</g>
<!-- P5 -->
<g id="node5" class="node"><title>P5</title>
<ellipse fill="#fed9a6" stroke="black" cx="506" cy="-143.61" rx="65.1077" ry="26.7407"/>
<text text-anchor="middle" x="506" y="-147.41" font-family="Times New Roman,serif" font-size="14.00">utils</text>
<text text-anchor="middle" x="506" y="-132.41" font-family="Times New Roman,serif" font-size="14.00">Utils package</text>
</g>
<!-- P5&#45;&gt;P1 -->
<g id="edge4" class="edge"><title>P5&#45;&gt;P1</title>
<path fill="none" stroke="black" stroke-dasharray="5,2" d="M532.159,-177.921C553.766,-209.793 577.4,-258.222 554,-294.35 543.266,-310.922 525.566,-322.024 507.42,-329.441"/>
<polygon fill="black" stroke="black" points="526.159,-169.395 535.594,-174.983 529.037,-173.484 531.914,-177.573 531.914,-177.573 531.914,-177.573 529.037,-173.484 528.234,-180.163 526.159,-169.395 526.159,-169.395"/>
</g>
<!-- P5&#45;&gt;P2 -->
<g id="edge7" class="edge"><title>P5&#45;&gt;P2</title>
<path fill="none" stroke="black" stroke-dasharray="5,2" d="M484.468,-178.358C476.288,-191.178 467.109,-205.564 459.47,-217.536"/>
<polygon fill="black" stroke="black" points="489.939,-169.782 488.354,-180.633 487.25,-173.997 484.561,-178.212 484.561,-178.212 484.561,-178.212 487.25,-173.997 480.767,-175.792 489.939,-169.782 489.939,-169.782"/>
</g>
<!-- P5&#45;&gt;P3 -->
<g id="edge16" class="edge"><title>P5&#45;&gt;P3</title>
<path fill="none" stroke="black" stroke-dasharray="5,2" d="M444.811,-163.258C390.43,-179.83 310.896,-204.069 253.58,-221.536"/>
<polygon fill="black" stroke="black" points="454.661,-160.256 446.407,-167.476 449.878,-161.713 445.096,-163.171 445.096,-163.171 445.096,-163.171 449.878,-161.713 443.784,-158.867 454.661,-160.256 454.661,-160.256"/>
</g>
<!-- P6 -->
<g id="node6" class="node"><title>P6</title>
<ellipse fill="none" stroke="black" stroke-dasharray="5,2" cx="319" cy="-42.8701" rx="78.4777" ry="26.7407"/>
<text text-anchor="middle" x="319" y="-46.6701" font-family="Times New Roman,serif" font-size="14.00">thirdPartySdk</text>
<text text-anchor="middle" x="319" y="-31.6701" font-family="Times New Roman,serif" font-size="14.00">Third party SDK</text>
</g>
<!-- P6&#45;&gt;P1 -->
<g id="edge5" class="edge"><title>P6&#45;&gt;P1</title>
<path fill="none" stroke="black" stroke-dasharray="5,2" d="M401.137,-55.2608C470.999,-66.8307 563.486,-87.2578 586,-116.74 610.146,-148.359 594.353,-259.879 567,-294.35 552.943,-312.066 531.607,-323.502 510.575,-330.873"/>
<polygon fill="black" stroke="black" points="391.005,-53.618 401.597,-50.7765 395.941,-54.4182 400.876,-55.2185 400.876,-55.2185 400.876,-55.2185 395.941,-54.4182 400.156,-59.6605 391.005,-53.618 391.005,-53.618"/>
</g>
<!-- P6&#45;&gt;P2 -->
<g id="edge8" class="edge"><title>P6&#45;&gt;P2</title>
<path fill="none" stroke="black" stroke-dasharray="5,2" d="M358.166,-74.5559C371.558,-86.5774 385.732,-101.211 396,-116.74 416.949,-148.424 430.206,-190.709 437.117,-217.491"/>
<polygon fill="black" stroke="black" points="350.408,-67.7927 360.903,-70.9715 354.177,-71.0782 357.946,-74.3637 357.946,-74.3637 357.946,-74.3637 354.177,-71.0782 354.989,-77.7558 350.408,-67.7927 350.408,-67.7927"/>
</g>
<!-- P6&#45;&gt;P3 -->
<g id="edge17" class="edge"><title>P6&#45;&gt;P3</title>
<path fill="none" stroke="black" stroke-dasharray="5,2" d="M237.304,-55.9562C169.761,-67.8167 81.5624,-88.2739 60,-116.74 45.5784,-135.779 48.2115,-149.708 60,-170.48 72.7248,-192.902 95.3898,-209.161 117.759,-220.553"/>
<polygon fill="black" stroke="black" points="247.531,-54.1977 238.438,-60.3273 242.603,-55.0451 237.676,-55.8924 237.676,-55.8924 237.676,-55.8924 242.603,-55.0451 236.913,-51.4575 247.531,-54.1977 247.531,-54.1977"/>
</g>
<!-- P6&#45;&gt;P4 -->
<g id="edge18" class="edge"><title>P6&#45;&gt;P4</title>
<path fill="none" stroke="black" stroke-dasharray="5,2" d="M289.092,-76.3214C276.912,-89.5376 263.036,-104.594 251.59,-117.014"/>
<polygon fill="black" stroke="black" points="296.037,-68.7864 292.569,-79.1894 292.648,-72.4631 289.26,-76.1398 289.26,-76.1398 289.26,-76.1398 292.648,-72.4631 285.951,-73.0901 296.037,-68.7864 296.037,-68.7864"/>
</g>
<!-- P7 -->
<g id="node7" class="node"><title>P7</title>
<polygon fill="#e5d8bd" stroke="black" points="802,-364.09 799,-368.09 778,-368.09 775,-364.09 698,-364.09 698,-326.09 802,-326.09 802,-364.09"/>
<text text-anchor="middle" x="750" y="-348.89" font-family="Times New Roman,serif" font-size="14.00">components</text>
<text text-anchor="middle" x="750" y="-333.89" font-family="Times New Roman,serif" font-size="14.00">UI components</text>
</g>
<!-- P8 -->
<g id="node8" class="node"><title>P8</title>
<polygon fill="#fddaec" stroke="black" points="838,-263.35 835,-267.35 814,-267.35 811,-263.35 662,-263.35 662,-225.35 838,-225.35 838,-263.35"/>
<text text-anchor="middle" x="750" y="-248.15" font-family="Times New Roman,serif" font-size="14.00">viewmodels</text>
<text text-anchor="middle" x="750" y="-233.15" font-family="Times New Roman,serif" font-size="14.00">View models used by the UI</text>
</g>
<!-- P8&#45;&gt;P7 -->
<g id="edge9" class="edge"><title>P8&#45;&gt;P7</title>
<path fill="none" stroke="black" stroke-dasharray="5,2" d="M750,-273.782C750,-290.51 750,-311.176 750,-325.76"/>
<polygon fill="black" stroke="black" points="750,-263.461 754.5,-273.461 750,-268.461 750,-273.461 750,-273.461 750,-273.461 750,-268.461 745.5,-273.461 750,-263.461 750,-263.461"/>
</g>
<!-- P9 -->
<g id="node9" class="node"><title>P9</title>
<polygon fill="#f2f2f2" stroke="black" points="893,-162.61 890,-166.61 869,-166.61 866,-162.61 693,-162.61 693,-124.61 893,-124.61 893,-162.61"/>
<text text-anchor="middle" x="793" y="-147.41" font-family="Times New Roman,serif" font-size="14.00">models</text>
<text text-anchor="middle" x="793" y="-132.41" font-family="Times New Roman,serif" font-size="14.00">Models used by the view models</text>
</g>
<!-- P9&#45;&gt;P7 -->
<g id="edge10" class="edge"><title>P9&#45;&gt;P7</title>
<path fill="none" stroke="black" stroke-dasharray="5,2" d="M821.001,-170.205C833.006,-183.068 845.701,-199.69 852,-217.48 863.403,-249.686 870.105,-265.378 852,-294.35 840.828,-312.227 821.176,-323.85 802.085,-331.323"/>
<polygon fill="black" stroke="black" points="813.678,-162.704 823.884,-166.716 817.171,-166.282 820.664,-169.86 820.664,-169.86 820.664,-169.86 817.171,-166.282 817.444,-173.003 813.678,-162.704 813.678,-162.704"/>
</g>
<!-- P9&#45;&gt;P8 -->
<g id="edge12" class="edge"><title>P9&#45;&gt;P8</title>
<path fill="none" stroke="black" stroke-dasharray="5,2" d="M781.033,-172.09C773.677,-188.981 764.455,-210.158 757.982,-225.02"/>
<polygon fill="black" stroke="black" points="785.113,-162.721 785.246,-173.686 783.117,-167.305 781.12,-171.889 781.12,-171.889 781.12,-171.889 783.117,-167.305 776.995,-170.092 785.113,-162.721 785.113,-162.721"/>
</g>
<!-- P10 -->
<g id="node10" class="node"><title>P10</title>
<polygon fill="#fbb4ae" stroke="black" points="713,-61.8701 710,-65.8701 689,-65.8701 686,-61.8701 631,-61.8701 631,-23.8701 713,-23.8701 713,-61.8701"/>
<text text-anchor="middle" x="672" y="-46.6701" font-family="Times New Roman,serif" font-size="14.00">utils</text>
<text text-anchor="middle" x="672" y="-31.6701" font-family="Times New Roman,serif" font-size="14.00">general utils</text>
</g>
<!-- P10&#45;&gt;P7 -->
<g id="edge11" class="edge"><title>P10&#45;&gt;P7</title>
<path fill="none" stroke="black" stroke-dasharray="5,2" d="M659.042,-71.2725C637.981,-120.203 602.881,-224.05 647,-294.35 658.4,-312.516 678.513,-324.207 697.959,-331.653"/>
<polygon fill="black" stroke="black" points="663.165,-61.9705 663.227,-72.9362 661.139,-66.5417 659.113,-71.1129 659.113,-71.1129 659.113,-71.1129 661.139,-66.5417 654.999,-69.2895 663.165,-61.9705 663.165,-61.9705"/>
</g>
<!-- P10&#45;&gt;P8 -->
<g id="edge13" class="edge"><title>P10&#45;&gt;P8</title>
<path fill="none" stroke="black" stroke-dasharray="5,2" d="M667.742,-72.1165C665.003,-98.6755 664.171,-138.953 678,-170.48 687.788,-192.793 707.72,-212.094 724.135,-225.216"/>
<polygon fill="black" stroke="black" points="668.949,-61.9788 672.235,-72.4409 668.358,-66.9438 667.767,-71.9087 667.767,-71.9087 667.767,-71.9087 668.358,-66.9438 663.298,-71.3765 668.949,-61.9788 668.949,-61.9788"/>
</g>
<!-- P10&#45;&gt;P9 -->
<g id="edge14" class="edge"><title>P10&#45;&gt;P9</title>
<path fill="none" stroke="black" stroke-dasharray="5,2" d="M701.964,-68.3217C723.192,-85.6445 751.218,-108.515 770.538,-124.28"/>
<polygon fill="black" stroke="black" points="694.193,-61.9805 704.786,-64.8165 698.067,-65.1417 701.941,-68.303 701.941,-68.303 701.941,-68.303 698.067,-65.1417 699.096,-71.7894 694.193,-61.9805 694.193,-61.9805"/>
</g>
<!-- P11 -->
<g id="node11" class="node"><title>P11</title>
<polygon fill="#b3cde3" stroke="black" points="1163.5,-263.35 1160.5,-267.35 1139.5,-267.35 1136.5,-263.35 934.5,-263.35 934.5,-225.35 1163.5,-225.35 1163.5,-263.35"/>
<text text-anchor="middle" x="1049" y="-248.15" font-family="Times New Roman,serif" font-size="14.00">components</text>
<text text-anchor="middle" x="1049" y="-233.15" font-family="Times New Roman,serif" font-size="14.00">UI components that compose the grid</text>
</g>
<!-- P12 -->
<g id="node12" class="node"><title>P12</title>
<polygon fill="#ccebc5" stroke="black" points="1187,-162.61 1184,-166.61 1163,-166.61 1160,-162.61 969,-162.61 969,-124.61 1187,-124.61 1187,-162.61"/>
<text text-anchor="middle" x="1078" y="-147.41" font-family="Times New Roman,serif" font-size="14.00">models</text>
<text text-anchor="middle" x="1078" y="-132.41" font-family="Times New Roman,serif" font-size="14.00">Models used by the UI components</text>
</g>
<!-- P12&#45;&gt;P11 -->
<g id="edge19" class="edge"><title>P12&#45;&gt;P11</title>
<path fill="none" stroke="black" stroke-dasharray="5,2" d="M1069.79,-172.565C1064.85,-189.376 1058.71,-210.297 1054.38,-225.02"/>
<polygon fill="black" stroke="black" points="1072.68,-162.721 1074.18,-173.583 1071.27,-167.518 1069.86,-172.315 1069.86,-172.315 1069.86,-172.315 1071.27,-167.518 1065.55,-171.047 1072.68,-162.721 1072.68,-162.721"/>
</g>
<!-- P13 -->
<g id="node13" class="node"><title>P13</title>
<polygon fill="#decbe4" stroke="black" points="1053,-61.8701 1050,-65.8701 1029,-65.8701 1026,-61.8701 971,-61.8701 971,-23.8701 1053,-23.8701 1053,-61.8701"/>
<text text-anchor="middle" x="1012" y="-46.6701" font-family="Times New Roman,serif" font-size="14.00">utils</text>
<text text-anchor="middle" x="1012" y="-31.6701" font-family="Times New Roman,serif" font-size="14.00">general utils</text>
</g>
<!-- P13&#45;&gt;P11 -->
<g id="edge20" class="edge"><title>P13&#45;&gt;P11</title>
<path fill="none" stroke="black" stroke-dasharray="5,2" d="M984.465,-69.5479C972.662,-82.4296 960.183,-99.043 954,-116.74 946.122,-139.288 943.434,-149.06 954,-170.48 965.862,-194.528 989.892,-212.844 1010.81,-225.098"/>
<polygon fill="black" stroke="black" points="991.665,-62.0332 987.996,-72.3671 988.206,-65.6435 984.747,-69.2539 984.747,-69.2539 984.747,-69.2539 988.206,-65.6435 981.498,-66.1407 991.665,-62.0332 991.665,-62.0332"/>
</g>
<!-- P13&#45;&gt;P12 -->
<g id="edge21" class="edge"><title>P13&#45;&gt;P12</title>
<path fill="none" stroke="black" stroke-dasharray="5,2" d="M1029.74,-70.4075C1041.13,-87.4469 1055.63,-109.14 1065.75,-124.28"/>
<polygon fill="black" stroke="black" points="1024.11,-61.9805 1033.4,-67.7936 1026.88,-66.1374 1029.66,-70.2943 1029.66,-70.2943 1029.66,-70.2943 1026.88,-66.1374 1025.92,-72.795 1024.11,-61.9805 1024.11,-61.9805"/>
</g>
</g>
</svg>
